<?xml version="1.0" encoding="utf-8"?>
<!-- Generator: Adobe Illustrator 24.0.1, SVG Export Plug-In . SVG Version: 6.00 Build 0)  -->
<svg version="1.1" id="ecbd41bb-42c8-4cdc-97fe-fcff3c9d3024"
	 xmlns="http://www.w3.org/2000/svg" xmlns:xlink="http://www.w3.org/1999/xlink" x="0px" y="0px" viewBox="0 0 990 772.6"
	 style="enable-background:new 0 0 990 772.6;" xml:space="preserve">
<style type="text/css">
	.st0{fill:#F2F2F2;}
	.st1{fill:#3F3D56;}
	.st2{opacity:0.1;enable-background:new    ;}
	.st3{fill:#6C63FF;}
	.st4{fill:#2F2E41;}
	.st5{fill:#9F616A;}
	.st6{fill:#D0CDE1;}
	.st7{fill:#87515C;}
</style>
<title>wandering_mind</title>
<polygon class="st0" points="810.7,163.6 338,488.1 305.8,441.1 710,163.6 "/>
<polygon class="st0" points="966,163.6 966,210.6 301,667.1 268.8,620.1 933.8,163.6 "/>
<polygon class="st0" points="966,301.9 966,371.1 452.5,723.6 351.8,723.6 "/>
<ellipse class="st1" cx="495" cy="749.6" rx="495" ry="23"/>
<ellipse class="st2" cx="732" cy="753.6" rx="115" ry="16"/>
<ellipse class="st2" cx="328" cy="750.6" rx="145" ry="19"/>
<polygon class="st3" points="501.7,222.8 527.1,217 546,222.8 402.3,736.6 382,748.2 402.3,485.5 "/>
<polygon class="st2" points="501.7,222.8 527.1,217 546,222.8 402.3,736.6 382,748.2 402.3,485.5 "/>
<polygon class="st3" points="143.6,63.5 384.5,747.9 529.7,217.4 "/>
<path class="st3" d="M216.9,494c40.6,36.8,33,73.7,6,103.5c-0.6,0.7-1.3,1.4-1.9,2c-1.3,1.4-2.6,2.7-3.9,3.9
	c-26.2,25.2-60,32.6-97.8-1.6c-39.1-35.4-43.2-130-43.5-137c0,0,0,0,0,0c0-0.3,0-0.4,0-0.4S176.2,457.3,216.9,494z"/>
<path class="st1" d="M214.9,593.9l-9.7-44.7l12.7,47.5l3.1,2.9c-1.3,1.4-2.6,2.7-3.9,3.9l-38.7-38.9l-0.3-0.3l0-0.1l-3.7-3.7
	l-48.6-7.9l45.8,5.3l0.9,0.7l-29.3-29.4l-47-11.7l41.8,6.6l-62.2-59.3l-0.2-0.2l0.2,0.2l50,45.7l-4.6-34.9l8.9,38.9l27.1,25.3
	L145,500.2l16.1,43.4l15.1,14.1l-16-56.1l21.3,61L214.9,593.9z"/>
<path class="st1" d="M325,424.6c-93.9,0-170,76.1-170,170s76.1,170,170,170s170-76.1,170-170c0,0,0,0,0,0
	C495,500.7,418.9,424.6,325,424.6z M328,636.1c-19.1,0-34.5-18.8-34.5-42s15.4-42,34.5-42s34.5,18.8,34.5,42S347.1,636.1,328,636.1z
	"/>
<path class="st2" d="M327,636.1c-19.1,0-34.5-18.8-34.5-42s15.4-42,34.5-42c18.5,0,33.5,17.6,34.5,39.8c0-0.6,0-1.2,0-1.8
	c0-28.2-22.8-51-51-51c-28.2,0-51,22.8-51,51c0,28.2,22.8,51,51,51c8.4,0,16.6-2.1,24-6C332.1,635.8,329.5,636.1,327,636.1z"/>
<path class="st1" d="M148.3,0C107.8,0,75,32.8,75,73.3s32.8,73.3,73.3,73.3s73.3-32.8,73.3-73.3l0,0C221.6,32.8,188.8,0,148.3,0
	L148.3,0z M149.6,91.2c-8.2,0-14.9-8.1-14.9-18.1S141.4,55,149.6,55c8.2,0,14.9,8.1,14.9,18.1C164.5,83.1,157.8,91.2,149.6,91.2z"/>
<path class="st2" d="M149.2,91.2c-8.2,0-14.9-8.1-14.9-18.1S140.9,55,149.2,55c8,0,14.5,7.6,14.9,17.2c0-0.3,0-0.5,0-0.8
	c0-12.1-9.8-22-22-22c-12.1,0-22,9.8-22,22s9.8,22,22,22c3.6,0,7.2-0.9,10.4-2.6C151.4,91,150.3,91.2,149.2,91.2z"/>
<path class="st1" d="M682,661.6h-11v93c0,0,71,23,140,0v-93H682z"/>
<ellipse class="st1" cx="740" cy="662.1" rx="69" ry="10.5"/>
<ellipse class="st2" cx="740" cy="662.1" rx="69" ry="10.5"/>
<path class="st1" d="M820.2,550.5c-17.4,64.3-77,104.2-77,104.2s-31.4-64.5-14-128.8s77-104.2,77-104.2S837.6,486.2,820.2,550.5z"/>
<path class="st3" d="M661.9,550.5c17.4,64.3,77,104.2,77,104.2s31.4-64.5,14-128.8s-77-104.2-77-104.2S644.5,486.2,661.9,550.5z"/>
<path class="st1" d="M687.4,536.7c47.8,46.5,53.6,118,53.6,118s-71.6-3.9-119.4-50.4s-53.6-118-53.6-118S639.7,490.2,687.4,536.7z"
	/>
<path class="st1" d="M794.6,536.7c-47.8,46.5-53.6,118-53.6,118s71.6-3.9,119.4-50.4s53.6-118,53.6-118S842.4,490.2,794.6,536.7z"/>
<circle class="st3" cx="741" cy="421.6" r="22"/>
<path class="st4" d="M331.4,250c0,0,42.3,1.2,49.3,3.7s10.1,20.7,10.1,20.7L358,284.7l-24.6-1.4l-18.5,1.3l10.3-27.1L331.4,250z"/>
<path class="st5" d="M333.3,236.1c0,0,2.8,10.8-3.4,18.4s26.6,34.8,26.6,34.8l17.3-3c0,0-3.8-33.1,1.3-41.4S333.3,236.1,333.3,236.1
	z"/>
<path class="st2" d="M333.3,236.1c0,0,2.8,10.8-3.4,18.4s26.6,34.8,26.6,34.8l17.3-3c0,0-3.8-33.1,1.3-41.4S333.3,236.1,333.3,236.1
	z"/>
<polygon class="st5" points="448.2,550.7 410.1,601.3 436.1,616.5 471.9,557.9 "/>
<path class="st4" d="M421.5,602.1c0,0-14-16.3-13.4-12.7s-10,34.5-0.1,37.5c9.9,3,94.6,10.9,95.8,1.3S478.4,612,478.4,612
	s-15.7-15.1-19.2-13.6S421.5,602.1,421.5,602.1z"/>
<polygon class="st5" points="439.7,599 470.1,650.9 493.1,637.6 462.4,595.1 "/>
<path class="st4" d="M487.8,475.5l-9,12.8c0,0-43.1,59.9-38.5,64.7s23.6,23.1,33.3,19.6s44.1-64.7,44.1-64.7l-9-35.9L487.8,475.5z"
	/>
<path class="st4" d="M302.1,463.4c0,0,9.7,18,34.1,24.1s50,18.6,50.9,18.4s3.5-1.5,4.1,2.1s7.3,10,7.3,10s27,91.8,37.3,91.9
	s31.5-7.3,32-10.2s-31.6-96.7-31.9-98.5l-3.8-21.8c0,0,42.4,6.8,46.3,8s39.1,20.4,39.1,20.4s35.8-25.8,2.3-51.9
	s-91.1-45.2-91.1-45.2l-20.7-5.8l-18-1.1l-2.7-10.2l-42.7,2.5L300.3,415L302.1,463.4z"/>
<ellipse class="st5" cx="357.4" cy="219.4" rx="33.2" ry="38.1"/>
<path class="st6" d="M328.3,251l4-0.7c0,0,7.2,27.8,29.6,32.4c0,0,11-13.2,10.5-15.4s8.7-14.1,13.6-7.5s-1.2,123.8,2.9,125.9
	s12.9,4.3,5.8,12.1s-35.3,18.2-41.5,14.6s-19-34.2-24.5-44.5s-14.3-45.3-14.3-45.3s-11.3-38.3-4.3-47S328.3,251,328.3,251z"/>
<path class="st4" d="M360.1,395.2c-0.7,8.2-2,16.3-3.8,24.3c-1.6,6.5-3.5,10.4-5.7,10.3c-5.5-0.4-8,7.7-9.3,17
	c-1.4,9.9-1.4,21.2-2.1,25.2c-1,5.3-7.4,9.3-20.3,8.1c-7.7-0.9-15.2-2.7-22.3-5.5c-17.3-6.3-16.8-57.5-13.9-95.4
	c1.8-23.3,4.4-41.6,4.4-41.6s-5.3-15.7-7-26.5c-0.3-2-0.5-4-0.5-5.9c0.3-9.4,17.4-34.8,27.8-50.7c10.4-15.8,24.6-4.2,24.6-4.2
	l-4.9,14.9c0,0,7.6,11.8,7.7,23s18.3,19.3,24.9,24.8C363.7,316.5,363.6,362.1,360.1,395.2z"/>
<path class="st4" d="M374.6,255.7c0,0,1.2,1.4,6.7,0.7c6.6-0.8,15.6,1.4,17.7,7.7c3.9,11.5,14.7,58.4,14.7,58.4s4.5,53.5,6.6,65.4
	s1,22.3,3,28.5s-19.8-11.6-27.8-9.3s-13.2-27.7-12.2-38.2s1.9-21.9-0.9-32.6s2.2-39.2,2-45.8S366.6,267.6,374.6,255.7z"/>
<path class="st5" d="M398.1,422.1c0,0,35.2,19.2,38.6,46.5s-47.1-26.5-47.1-26.5L398.1,422.1z"/>
<path class="st5" d="M418.2,402.7c0,0,10.8,54.3,27.6,51.5s-9.4-54.6-9.4-54.6L418.2,402.7z"/>
<path class="st4" d="M475.7,639.6c0,0-8.6,9.9-10.7,8.4s-7,19-2.6,22.9s21.5,10.4,21.6,16.9s45.9,5.2,47.5-1.6s-5.7-22.4-10.9-25.3
	s-24.3-29.2-24.3-29.2S481.3,634,475.7,639.6z"/>
<path class="st2" d="M392.5,455.3c-8.2-5.8-30.9-7.2-51.2-8.5c-8.9-0.6-17.3-1.1-23.7-2c-6.2-0.9-11.8-6.5-16.7-15
	c-7.5-12.8-13.6-32-18.3-50.5c1.8-23.3,4.4-41.6,4.4-41.6s-5.3-15.7-7-26.5c1.2-1.7,2.7-3,4.5-4c21.5-9.2,41.9,81.4,44.5,95.6
	c0,0.2,0.1,0.5,0.1,0.6c1.3,7.3,14.9,13.6,27.1,16.1c7.5,1.5,14.5,1.6,17.7-0.4c8.5-5.2,34.5,15.6,36.5,16.2
	C412.6,436,404.2,463.6,392.5,455.3z"/>
<path class="st4" d="M284.6,301.6c0,0-15.6,7.4-8.7,41.8s20.7,92.9,41.8,95.9s63.1,2.3,74.9,10.5s20.1-19.4,18.1-20
	s-28-21.4-36.5-16.2s-42.8-3.9-44.8-15.7S306.4,292.2,284.6,301.6z"/>
<path class="st4" d="M396.9,285.1l17.1,39.8c0,0,1.7-0.9,3.7,5.4s2.9,11.7,6.5,15.8s19.1,62.3,19.6,65s-21.6,12.1-26.5,4.6
	S396.9,285.1,396.9,285.1z"/>
<g>
	<path class="st4" d="M400,199.8c1.4-1.1,2.2-2.8,2-4.7c-0.3-2.7-2.5-4.8-5.2-4.9c-0.1-0.3-0.2-0.6-0.3-0.9c0.5-0.9,0.8-2,0.7-3.2
		c-0.3-2.8-2.7-4.9-5.5-4.9c-0.1-0.1-0.2-0.3-0.3-0.4c1-1.1,1.5-2.6,1.4-4.1c-0.3-3-2.9-5.1-5.9-4.9c-0.5,0-0.9,0.2-1.4,0.3
		c0.2-0.6,0.3-1.3,0.2-2c-0.2-2.4-2-4.3-4.3-4.8c0.1-0.4,0.2-0.9,0.1-1.4c-0.2-2-1.9-3.4-3.9-3.3c-1.3,0.1-2.4,0.9-2.9,2
		c-1.1-1-2.5-1.5-4.1-1.4c-0.9,0.1-1.7,0.4-2.4,0.8c0.2-0.4,0.3-0.8,0.3-1.3c-0.1-1.3-1.3-2.2-2.5-2.1c-1.3,0.1-2.2,1.3-2.1,2.5
		c0,0.2,0.1,0.4,0.1,0.6c-0.3,0.1-0.6,0.3-0.8,0.4c-0.6-0.3-1.3-0.4-1.9-0.3c-0.2,0-0.5,0.1-0.7,0.1c0,0,0-0.1,0-0.1
		c-0.1-1.3-1.3-2.2-2.5-2.1c-1,0.1-1.8,0.9-2.1,1.8c-1.1-1-2.6-1.6-4.2-1.5c-1.3,0.1-2.4,0.7-3.3,1.5c-0.3-0.1-0.6-0.1-0.9-0.1
		c-0.2,0-0.4,0.1-0.5,0.1c-1-1.8-3-2.9-5.2-2.7c-2.3,0.2-4.1,1.8-4.7,3.9c-0.5-0.2-1.1-0.3-1.7-0.2c-1.1,0.1-2.1,0.7-2.8,1.5
		c-0.5-0.4-1.1-0.7-1.8-0.6c-1.3,0.1-2.2,1.3-2.1,2.5c0.1,1.1,0.9,1.9,1.9,2.1c0,0.1-0.1,0.1-0.1,0.2c-1.4,0.5-2.4,1.5-3,2.8
		c-1-0.7-2.3-1.1-3.6-1c-3,0.3-5.1,2.9-4.9,5.9c0.1,0.6,0.2,1.2,0.4,1.7c-1-0.7-2.2-1-3.5-0.9c-3,0.3-5.1,2.9-4.9,5.9
		c0.1,1.4,0.8,2.7,1.9,3.6c-1.4,0.6-2.4,1.8-2.9,3.2c-0.3-0.1-0.7-0.2-1-0.1c-1.3,0.1-2.2,1.3-2.1,2.5c0,0.5,0.2,0.9,0.5,1.3
		c-0.4,0.9-0.6,1.8-0.5,2.9c0.1,1.5,0.9,2.9,2.1,3.8c-1.3,1.1-2,2.8-1.9,4.6c0.1,0.9,0.4,1.8,0.9,2.5c-0.3,0.8-0.5,1.7-0.4,2.6
		c0.2,2.6,2.4,4.6,4.9,4.9c-0.3,0.7-0.4,1.6-0.3,2.4c0.2,1.7,1.1,3.2,2.5,4.1c-0.2,0.4-0.3,0.8-0.2,1.2c0.1,1.3,1.3,2.2,2.5,2.1
		c0.3,0,0.6-0.1,0.9-0.3c16.5,18.1,2.1-3.2,7.5-13.5c0.2,0.1,0.5,0.1,0.7,0.1c1.3-0.1,2.2-1.3,2.1-2.5c-0.1-0.8-0.5-1.4-1.2-1.8
		c0.4-0.8,0.8-1.6,1.3-2.4c0.9,0.5,1.9,0.7,3,0.6c3-0.3,5.1-2.9,4.9-5.9c0-0.3-0.1-0.6-0.2-0.9c0.8,0.3,1.9,0.6,3.2,0.9
		c0.2,1.2,1.3,2.1,2.5,2c0.3,0,0.6-0.1,0.8-0.2c0.9,2,3.1,3.3,5.4,3.1c1.8-0.2,3.3-1.2,4.2-2.7c0.5,0.6,1.2,1,2.1,1
		c1.2-0.1,2.1-1.1,2.1-2.3c0.8,2.3,3.1,3.8,5.6,3.6c2.9-0.3,5-2.8,4.9-5.6c1,0.8,2.4,1.3,3.8,1.1c0.8-0.1,1.5-0.3,2.1-0.7
		c0.2,1.2,1.3,2,2.5,1.9c1.3-0.1,2.2-1.3,2.1-2.5c-0.1-1.2-1.1-2.1-2.2-2.1c0-0.1,0.1-0.2,0.1-0.3c2.3,0.9,4.2,2.3,5.8,4
		c-0.9,1.1-1.3,2.4-1.2,3.9c0.3,3,2.9,5.1,5.9,4.9c0.1,0,0.3,0,0.4-0.1c4.4,11.2,1.1,23.8,8.8,7c0.1-0.3,0.3-0.5,0.4-0.8
		c0.2,0,0.4,0,0.6,0c1.3-0.1,2.2-1.3,2.1-2.5c-0.1-0.8-0.5-1.4-1.1-1.8c0-0.1,0-0.1,0-0.2c0,0,0.1,0,0.1,0c3-0.3,5.1-2.9,4.9-5.9
		C401.9,202,401.1,200.7,400,199.8z"/>
	<path class="st4" d="M395.4,181.3c1.3-0.1,2.2-1.3,2.1-2.5c-0.1-1.3-1.3-2.2-2.5-2.1c-1.3,0.1-2.2,1.3-2.1,2.5
		C392.9,180.5,394.1,181.4,395.4,181.3z"/>
	<circle class="st4" cx="316.2" cy="174.3" r="2.3"/>
</g>
<g>
	<path class="st7" d="M359.9,229.8c1.9,0.6,3.1,2.6,2.5,4.5c-0.6,1.9-2.6,3.1-4.5,2.5c-1.9-0.6-3.1-2.6-2.5-4.5
		C355.9,230.3,358,229.2,359.9,229.8z M358,236.2c1.6,0.5,3.3-0.5,3.8-2.1c0.5-1.6-0.5-3.3-2.1-3.8c-1.6-0.5-3.3,0.5-3.8,2.1
		C355.5,234.1,356.4,235.7,358,236.2z"/>
</g>
<g>
	<path class="st4" d="M359.7,229.6c1.9,0.6,3.1,2.6,2.5,4.5c-0.6,1.9-2.6,3.1-4.5,2.5s-3.1-2.6-2.5-4.5
		C355.7,230.2,357.7,229.1,359.7,229.6z M357.8,236.1c1.6,0.5,3.3-0.5,3.8-2.1c0.5-1.6-0.5-3.3-2.1-3.8s-3.3,0.5-3.8,2.1
		C355.3,233.9,356.2,235.6,357.8,236.1z"/>
</g>
<path class="st5" d="M362.7,236.6l-3.6-3.4l-1.5,0.2c0,0-2.5,3.3-2.5,3.4C355.1,237,362.7,236.6,362.7,236.6z"/>
<circle class="st4" cx="356.2" cy="235.4" r="0.7"/>
<circle class="st4" cx="361.1" cy="235.4" r="0.7"/>
<ellipse class="st5" cx="359.1" cy="236.9" rx="1.4" ry="0.4"/>
</svg>
